# xmcd
#
# Track frame offsets:
#	150
#	10174
#	22031
#	36530
#	47298
#	59604
#	72654
#	85854
#	96141
#	108021
#
# Disc length: 1574 seconds
#
# Revision: 0
# Processed by: cddbd v1.4PL0 Copyright (c) Steve Scherf et al.
# Submitted via: EasyCDDAExtractor 4.6.9.1
#
DISCID=7f06240a
DTITLE=SOLDAT LEBRUN - LE DISQUE D'OR
DYEAR=1900
DGENRE=
TTITLE0=L'adieu Du Soldat
TTITLE1=Courageux Canadien
TTITLE2=La Priere D'une Mere
TTITLE3=Entre Tes Bras
TTITLE4=Je T'ai Aimer Je T'aime Encore
TTITLE5=Le Lierre
TTITLE6=Je Le Vengerai
TTITLE7=Mon P'tit Village
TTITLE8=Jubiler D'or
TTITLE9=Pour Oublier Cette Vie
EXTD=
EXTT0=
EXTT1=
EXTT2=
EXTT3=
EXTT4=
EXTT5=
EXTT6=
EXTT7=
EXTT8=
EXTT9=
PLAYORDER=
